<?xml version="1.0" standalone="no"?><!DOCTYPE svg PUBLIC "-//W3C//DTD SVG 1.1//EN" "http://www.w3.org/Graphics/SVG/1.1/DTD/svg11.dtd"><svg t="1737869176133" class="icon" viewBox="0 0 1024 1024" version="1.1" xmlns="http://www.w3.org/2000/svg" p-id="29564" xmlns:xlink="http://www.w3.org/1999/xlink" width="128" height="128"><path d="M509.713067 73.147733c58.965333 0 116.138667 11.52 169.915733 34.269867a435.268267 435.268267 0 0 1 138.786133 93.5936 435.080533 435.080533 0 0 1 127.863467 308.701867c0 58.965333-11.52 116.138667-34.269867 169.915733a435.268267 435.268267 0 0 1-93.5936 138.786133 435.080533 435.080533 0 0 1-308.701866 127.863467c-58.965333 0-116.138667-11.52-169.915734-34.269867a435.268267 435.268267 0 0 1-138.786133-93.5936 435.080533 435.080533 0 0 1-127.863467-308.701866c0-58.965333 11.52-116.138667 34.269867-169.915734a435.268267 435.268267 0 0 1 93.5936-138.786133 435.080533 435.080533 0 0 1 308.701867-127.863467m0-73.147733C228.1984 0 0 228.1984 0 509.713067c0 281.514667 228.1984 509.713067 509.713067 509.713066 281.514667 0 509.713067-228.1984 509.713066-509.713066C1019.426133 228.1984 791.227733 0 509.713067 0z" fill="#64CC7E" p-id="29565"></path><path d="M273.066667 273.066667m81.92 0l331.093333 0q81.92 0 81.92 81.92l0 331.093333q0 81.92-81.92 81.92l-331.093333 0q-81.92 0-81.92-81.92l0-331.093333q0-81.92 81.92-81.92Z" fill="#64CC7E" p-id="29566"></path></svg>